HIERARCHY
ROOT pelvis
{
  OFFSET 0 100 0
  CHANNELS 6 Xposition Yposition Zposition Zrotation Xrotation Yrotation
  JOINT pelvis_right_femur
  {
    OFFSET -10.78128 -3.44521 -0.5502486
    CHANNELS 3 Zrotation Xrotation Yrotation
    JOINT right_femur_tibia
    {
      OFFSET -0.8047443 -44.0398 -0.1307829
      CHANNELS 3 Zrotation Xrotation Yrotation
      JOINT right_tibia_foot
      {
        OFFSET 3.006224 -47.83518 -5
        CHANNELS 3 Zrotation Xrotation Yrotation
        End Site
        {
          OFFSET 0 -5 15
        }
      }
    }
  }
  JOINT pelvis_left_femur
  {
    OFFSET 10.78128 -3.44521 -0.5502486
    CHANNELS 3 Zrotation Xrotation Yrotation
    JOINT left_femur_tibia
    {
      OFFSET 0.8047443 -44.0398 -0.1307829
      CHANNELS 3 Zrotation Xrotation Yrotation
      JOINT left_tibia_foot
      {
        OFFSET -4.370144 -48.10324 -4.275266
        CHANNELS 3 Zrotation Xrotation Yrotation
        End Site
        {
          OFFSET 0 -5 15
        }
      }
    }
  }
  JOINT pelvis_spine1
  {
    OFFSET 0 6.468898 -3.129235
    CHANNELS 3 Zrotation Xrotation Yrotation
    JOINT spine1
    {
      OFFSET 0 23.15396 4.99043
      CHANNELS 3 Zrotation Xrotation Yrotation
      JOINT spine2
      {
        OFFSET 0 20.79997 -5.064912
        CHANNELS 3 Zrotation Xrotation Yrotation
        JOINT neck
        {
          OFFSET 0 14.38658 9.616178
          CHANNELS 3 Zrotation Xrotation Yrotation
          End Site
          {
            OFFSET 0 20 0
          }
        }
      }
      JOINT right_manubrium
      {
        OFFSET -5.722621 16.35077 3.967754
        CHANNELS 3 Zrotation Xrotation Yrotation
        JOINT right_clavicle
        {
          OFFSET -13.16364 1.694482 -4.693211
          CHANNELS 3 Zrotation Xrotation Yrotation
          JOINT right_humerus
          {
            OFFSET -28.5034 -0.3100689 -2.792744
            CHANNELS 3 Zrotation Xrotation Yrotation
            JOINT right_radius
            {
              OFFSET -25.15693 0.02248979 -1.271978
              CHANNELS 3 Zrotation Xrotation Yrotation
              End Site
              {
                OFFSET -15 0 0
              }
            }
          }
        }
      }
      JOINT left_manubrium
      {
        OFFSET 5.722621 16.35077 3.967754
        CHANNELS 3 Zrotation Xrotation Yrotation
        JOINT left_clavicle
        {
          OFFSET 13.16364 1.694482 -4.693211
          CHANNELS 3 Zrotation Xrotation Yrotation
          JOINT left_humerus
          {
            OFFSET 29.39168 -1.063119 -2.237045
            CHANNELS 3 Zrotation Xrotation Yrotation
            JOINT left_radius
            {
              OFFSET 24.59957 -0.9528479 0.9047498
              CHANNELS 3 Zrotation Xrotation Yrotation
              End Site
              {
                OFFSET 15 -0 -0
              }
            }
          }
        }
      }
    }
  }
}
MOTION
Frames: 19
Frame Time: 0.0416666666667
61.29906 102.2937 255.276 3.876224 -7.612635 5.065339 -2.509285 25.18438 8.402239 -0 27.17973 -0 6.773772 -11.82074 -0.08700538 -2.571215 -23.73066 -7.555668 -0 24.54214 -0 -8.385175 -5.719912 18.15693 -1.379465 -1.998125 9.795909 -2.626993 9.500981 -2.044162 2.613429 21.72066 3.856441 1.426817 -14.54279 6.162933 0.308708 -21.80052 10.50096 82.17539 19.38779 -6.023485 -0 0 28.19136 -23.46604 10.08727 12.97016 4.528082 -12.46678 -2.793511 -94.78593 23.34715 27.06761 0 0 -8.143798 -4.719125 5.029132 18.94453
63.28728 102.8638 262.5877 4.32934 -7.911737 5.383035 -3.482101 23.53897 7.696782 -0 35.17688 -0 6.747334 -9.662607 -1.005202 -4.238812 -19.88358 -8.842195 -0 25.55798 -0 -8.054867 -6.332847 17.68368 -2.014092 -2.456799 9.504389 -2.584248 9.389544 -2.088498 2.719408 21.96539 3.844435 1.309818 -14.50098 6.391384 0.7435479 -20.69933 10.25333 83.07287 19.46442 -7.312182 -0 0 26.12439 -23.07883 10.12098 12.36622 4.367071 -12.32314 -2.89202 -93.98436 23.85433 26.04424 0 0 -7.917237 -4.706031 5.116165 19.02541
65.17076 103.9843 269.5288 4.785401 -8.507791 6.273802 -3.695034 19.84075 6.728494 -0 43.82345 -0 6.39724 -8.03792 -2.437333 -5.671976 -14.87209 -9.776167 -0 26.27636 -0 -7.542579 -7.661214 17.21363 -2.491371 -2.356486 8.774433 -2.491058 9.403266 -2.271962 2.698069 22.36009 3.901029 1.123591 -14.36926 6.613123 1.342443 -19.57105 10.16769 84.13792 19.76345 -8.905345 -0 0 23.48614 -22.48874 10.25713 11.59707 4.189628 -12.70613 -3.07118 -92.59363 24.44209 24.07425 0 0 -8.389678 -4.457487 5.320236 18.7897
66.85785 105.5036 275.9513 4.994749 -9.286904 7.292933 -3.324038 14.19736 5.608495 -0 50.97178 -0 5.884736 -7.365135 -4.058548 -6.520981 -9.154411 -10.30548 -0 26.00913 -0 -7.038345 -9.241164 16.76029 -2.685427 -1.763042 7.650104 -2.289576 9.474863 -2.640559 2.573652 22.86731 4.054354 0.8801496 -14.1358 6.881191 1.923337 -18.53347 10.18597 85.37029 20.21737 -10.60273 -0 0 20.78922 -21.74283 10.45169 10.80424 4.036122 -13.46269 -3.352944 -90.76566 25.03443 21.29575 0 0 -9.446224 -3.995987 5.626849 18.28819
68.35244 107.2317 281.9066 4.894006 -9.922545 8.335933 -2.688103 7.33233 4.541681 -0 54.53317 -0 5.272628 -7.446485 -5.407403 -6.745553 -3.267948 -10.51494 -0 24.62427 -0 -6.718261 -10.66707 16.26728 -2.634715 -1.050513 6.234292 -1.95178 9.479074 -3.287982 2.430867 23.41567 4.282359 0.6281867 -13.83306 7.231027 2.223301 -17.54879 10.11043 86.75585 20.70096 -12.36224 -0 0 18.4415 -20.92297 10.63818 10.10793 4.020959 -14.35109 -3.704123 -88.7442 25.55086 17.96454 0 0 -11.00476 -3.38036 6.022849 17.57386
69.74802 108.7667 287.435 4.689268 -10.06108 9.511172 -2.033153 0.376183 3.691488 -0 53.75224 -0 4.579688 -7.496333 -6.35738 -6.630661 2.219422 -10.6341 -0 22.33095 -0 -6.585401 -11.9432 15.62384 -2.527444 -0.5752307 4.745305 -1.537713 9.282381 -4.217345 2.361478 23.88624 4.520604 0.4219887 -13.52804 7.646772 2.060898 -16.53047 9.776299 88.18538 21.09286 -14.1982 -0 0 16.59229 -20.11099 10.74888 9.550539 4.236764 -15.26202 -4.052889 -86.69231 25.95228 14.29031 0 0 -13.05326 -2.674891 6.501854 16.65837
71.03662 109.7149 292.6044 4.493202 -9.702734 10.78514 -1.769329 -6.087665 3.139414 -0 48.80985 -0 3.745808 -7.371193 -7.049595 -6.356693 7.07603 -10.79876 -0 19.64197 -0 -6.540351 -13.28169 14.81165 -2.50771 -0.3001199 3.414918 -1.075677 8.886435 -5.30378 2.445556 24.24242 4.65513 0.3122669 -13.24148 8.040299 1.499025 -15.52922 9.20235 89.42187 21.34993 -16.03524 -0 0 15.10718 -19.36045 10.75164 9.069503 4.661156 -16.25411 -4.34677 -84.62189 26.24063 10.40704 0 0 -15.51592 -1.912531 7.057344 15.53348
72.28159 109.9272 297.8942 4.433948 -9.072857 12.13567 -2.004896 -11.76741 2.854642 -0 40.72378 -0 2.72448 -7.248987 -7.701873 -6.107909 11.37473 -10.97364 -0 17.33243 -0 -6.503716 -14.78617 13.93156 -2.689692 -0.2105271 2.335254 -0.6102576 8.375799 -6.419436 2.676564 24.4449 4.634373 0.2992956 -13.05741 8.337877 0.71663 -14.51659 8.50155 90.3644 21.49447 -17.86051 -0 0 13.7101 -18.68096 10.66299 8.562898 5.234521 -17.26633 -4.555758 -82.58717 26.42009 6.553796 0 0 -18.1986 -1.097743 7.680943 14.23984
73.50391 109.4015 303.3877 4.545235 -8.311669 13.28906 -2.644963 -16.4513 2.551857 -0 31.12492 -0 1.565607 -7.307715 -8.478596 -6.038628 15.16473 -11.02601 -0 15.8774 -0 -6.465453 -16.41379 13.08267 -3.021192 -0.2410424 1.62193 -0.188326 7.853475 -7.308978 2.950708 24.49336 4.49716 0.3313354 -13.02539 8.502446 -0.03479581 -13.43706 7.861731 91.09916 21.58187 -19.65672 -0 0 12.11219 -17.99807 10.52672 7.913249 5.868081 -18.28157 -4.601891 -80.72055 26.48167 2.941575 0 0 -20.93063 -0.2206304 8.349599 12.8528
74.63907 108.3328 308.9777 4.724367 -7.571684 13.98964 -3.263497 -20.26009 1.98905 -0 21.73798 -0 0.3004977 -7.757716 -9.216199 -6.129249 18.43624 -10.85046 -0 15.477 -0 -6.480788 -17.95395 12.35563 -3.362531 -0.1711167 1.322348 0.1616757 7.374569 -7.772415 3.192837 24.44635 4.288214 0.3705617 -13.1267 8.528856 -0.5508858 -12.41551 7.47153 91.67684 21.68472 -21.2497 -0 0 10.22403 -17.23793 10.39233 7.075084 6.455224 -19.32772 -4.452941 -79.11824 26.43393 -0.2352869 0 0 -23.46819 0.7042753 9.021151 11.46831
75.64183 107.0396 314.6962 4.757553 -6.921646 14.21716 -3.344053 -22.95301 1.385568 -0 14.34758 -0 -0.9793219 -8.528328 -9.738624 -6.15533 21.10945 -10.54422 -0 16.22621 -0 -6.639278 -19.05444 11.81471 -3.54595 0.01303159 1.267113 0.464927 6.946865 -7.854203 3.37552 24.38732 4.053406 0.4002681 -13.33342 8.45762 -0.7261262 -11.53127 7.37554 92.16051 21.83732 -22.51823 -0 0 8.175195 -16.37722 10.29729 6.112844 6.861696 -20.32805 -4.176384 -77.88304 26.33122 -2.761035 0 0 -25.50397 1.604818 9.649067 10.20713
76.50115 105.7865 320.7498 4.571311 -6.523464 14.43789 -2.71037 -24.36032 1.223516 -0 10.68179 -0 -2.122833 -9.055868 -10.15277 -5.740614 23.26545 -10.33479 -0 18.34023 -0 -7.028708 -19.31104 11.48857 -3.470148 0.06388263 1.233326 0.7419676 6.54514 -7.714095 3.539055 24.33352 3.839811 0.4332364 -13.66138 8.387463 -0.6123795 -10.71798 7.483648 92.66223 22.00793 -23.45354 -0 0 6.196484 -15.4266 10.25247 5.134722 6.974062 -21.0303 -3.895498 -77.185 26.2692 -4.398234 0 0 -26.73476 2.392118 10.20431 9.184777
77.26903 104.8531 327.3481 4.117786 -6.398768 14.8956 -1.410062 -24.07055 1.90715 -0 11.19803 -0 -3.042726 -8.898935 -10.41159 -4.769459 24.70353 -10.33885 -0 22.29052 -0 -7.659599 -18.25534 11.51475 -3.067062 -0.2026496 1.02305 1.000089 6.319777 -7.566986 3.675073 24.42565 3.599435 0.4765812 -13.96769 8.245798 -0.3990158 -10.04323 7.613671 93.12265 22.17625 -23.94651 -0 0 4.62059 -14.48478 10.23689 4.294538 6.864129 -21.15611 -3.604949 -77.21479 26.35314 -4.901887 0 0 -26.96068 2.981682 10.68353 8.497646
78.00771 104.4456 334.4582 3.463603 -6.691624 15.16035 0.2435623 -22.30098 3.157408 -0 14.0334 -0 -3.816892 -8.456076 -10.42161 -3.618701 25.02851 -10.3988 -0 28.47139 -0 -8.384602 -15.85577 12.14494 -2.414867 -0.6642522 0.7138787 1.209232 6.316287 -7.512696 3.780147 24.66561 3.317114 0.5314306 -14.20148 8.006743 -0.2648599 -9.669237 7.664993 93.3583 22.35148 -23.85852 -0 0 3.730051 -13.71445 10.2125 3.744081 6.645236 -20.62734 -3.284634 -78.01076 26.61842 -4.115768 0 0 -26.06972 3.306972 11.09037 8.2116
78.76194 104.6898 341.7896 2.880906 -7.543671 14.72286 1.790245 -19.01013 4.451859 -0 17.16389 -0 -4.606527 -8.379463 -10.17976 -2.669998 23.42114 -10.3447 -0 36.58531 -0 -8.871392 -12.94112 13.53302 -1.707576 -0.8846791 0.7057262 1.345262 6.60968 -7.327985 3.811622 25.08033 3.071399 0.5714056 -14.34141 7.742384 -0.1413225 -9.73175 7.789934 93.16447 22.56722 -23.07989 -0 0 3.599152 -13.22111 10.15364 3.533857 6.234468 -19.7055 -3.027087 -79.47879 27.01875 -2.24258 0 0 -24.13769 3.32436 11.43331 8.320157
79.46544 105.4088 348.8502 2.55992 -8.866437 13.66509 3.033292 -14.47969 5.344795 -0 19.19852 -0 -5.384958 -9.013123 -9.795477 -2.357804 19.55282 -9.96938 -0 45.27509 -0 -8.97187 -10.32675 15.42486 -1.233847 -0.5357004 1.103799 1.417125 7.139098 -6.972166 3.820692 25.60412 2.854742 0.6157235 -14.39301 7.490017 0.0435106 -10.34732 8.082349 92.43145 22.83512 -21.55476 -0 0 4.140261 -13.07398 10.03789 3.662024 5.644561 -18.75661 -2.948526 -81.35163 27.44096 0.2819731 0 0 -21.41908 3.048211 11.72111 8.747781
80.12346 106.4375 355.5012 2.559675 -10.16026 12.41768 3.731571 -9.094206 5.732852 -0 19.55606 -0 -5.987455 -10.09942 -9.378807 -2.685658 14.10771 -9.413023 -0 53.12559 -0 -8.772211 -8.232104 17.39455 -1.143871 0.06508642 1.896071 1.396265 7.684755 -6.42652 3.887897 26.10608 2.640576 0.6973612 -14.40862 7.282284 0.2769852 -11.26239 8.512967 91.33008 23.08297 -19.54151 -0 0 5.096791 -13.27472 9.856894 4.070435 4.960048 -17.96821 -3.01802 -83.49539 27.78858 3.149383 0 0 -18.29005 2.544509 11.96193 9.365559
80.72247 107.6848 361.6264 2.892214 -11.02115 11.34311 3.704801 -3.344463 5.796666 -0 18.22376 -0 -6.331998 -11.17397 -8.824893 -3.264287 7.736936 -8.981822 -0 58.41369 -0 -8.311398 -6.74311 19.06661 -1.450744 0.6653366 2.91291 1.260489 8.059605 -5.708151 4.000221 26.48779 2.447517 0.8069731 -14.45948 7.129169 0.4647798 -12.19629 9.000572 90.14372 23.22125 -17.31856 -0 0 6.307704 -13.78541 9.605375 4.721034 4.404575 -17.36932 -3.13187 -85.79682 27.97214 6.179669 0 0 -15.15815 1.931442 12.16541 10.02354
81.25491 108.8667 367.2246 3.309455 -11.34823 10.3273 3.201333 2.230884 5.667085 -0 15.63431 -0 -6.463932 -12.06161 -8.046005 -3.731185 0.8268102 -8.823105 -0 58.99396 -0 -7.601667 -6.112746 20.25644 -1.945551 1.178899 3.897315 0.9981059 8.203086 -4.875746 4.050635 26.73578 2.324369 0.8916047 -14.54727 6.997209 0.3868011 -13.20648 9.431338 88.87799 23.2323 -14.91307 -0 0 7.866148 -14.60018 9.283235 5.648692 4.227287 -16.8564 -3.137921 -88.11142 27.92179 9.315204 0 0 -12.29294 1.331157 12.34326 10.60159
